<?xml version="1.0" encoding="UTF-8" standalone="no"?>
<svg
   width="350"
   height="350"
   viewBox="0 0 100 100"
   version="1.1"
   id="svg8"
   sodipodi:docname="logo.svg"
   inkscape:version="1.3.2 (091e20e, 2023-11-25, custom)"
   xmlns:inkscape="http://www.inkscape.org/namespaces/inkscape"
   xmlns:sodipodi="http://sodipodi.sourceforge.net/DTD/sodipodi-0.dtd"
   xmlns="http://www.w3.org/2000/svg"
   xmlns:svg="http://www.w3.org/2000/svg">
  <defs
     id="defs8" />
  <sodipodi:namedview
     id="namedview8"
     pagecolor="#ffffff"
     bordercolor="#000000"
     borderopacity="0.25"
     inkscape:showpageshadow="2"
     inkscape:pageopacity="0.0"
     inkscape:pagecheckerboard="0"
     inkscape:deskcolor="#d1d1d1"
     showgrid="false"
     inkscape:zoom="1.1849089"
     inkscape:cx="173.00907"
     inkscape:cy="232.08534"
     inkscape:window-width="1721"
     inkscape:window-height="1360"
     inkscape:window-x="-7"
     inkscape:window-y="0"
     inkscape:window-maximized="0"
     inkscape:current-layer="svg8" />
  <circle
     fill="#111"
     cx="50"
     cy="50"
     r="50"
     id="circle1" />
  <g
     id="g7">
    <rect
       fill="purple"
       x="50"
       y="35"
       width="45"
       height="2.5"
       id="rect1" />
    <rect
       fill="navy"
       x="50"
       y="37.5"
       width="45"
       height="2.5"
       id="rect2" />
    <rect
       fill="#0080ff"
       x="50"
       y="40"
       width="45"
       height="2.5"
       id="rect3" />
    <rect
       fill="#00fe00"
       x="50"
       y="42.5"
       width="45"
       height="2.5"
       id="rect4" />
    <rect
       fill="#ff0"
       x="50"
       y="45"
       width="45"
       height="2.5"
       id="rect5" />
    <rect
       fill="#ff8040"
       x="50"
       y="47.5"
       width="45"
       height="2.5"
       id="rect6" />
    <rect
       fill="red"
       x="50"
       y="50"
       width="45"
       height="2.5"
       id="rect7" />
  </g>
  <polygon
     fill="#111"
     stroke="#fafafa"
     stroke-width="2"
     points="50,15 84.64,75 15.36,75"
     id="polygon7" />
  <g
     fill="#fafafa"
     id="g8"
     transform="translate(-1.1428571)">
    <rect
       x="3.6878934"
       y="44.599998"
       width="59.624214"
       height="10"
       id="rect8"
       style="stroke-width:0.972839" />
    <path
       style="font-weight:bold;font-size:8px;font-family:'Cascadia Mono';-inkscape-font-specification:'Cascadia Mono Bold';display:inline;fill:#121212;stroke-width:0.285714"
       d="m 6.2006295,53.756277 -0.039063,-0.921875 1.328125,-0.03906 q 0.546875,-0.01563 0.7929687,-0.304687 0.2460938,-0.285157 0.2460938,-0.84375 v -3.023438 l 0.078125,-0.875 h 0.9804687 v 3.773438 q 0,1.105468 -0.5195312,1.628906 -0.5195313,0.527344 -1.65625,0.566406 z m 1.2226562,-1.789063 q -0.7695312,0 -1.1992187,-0.554687 -0.4257813,-0.554688 -0.4257813,-1.589844 0,-1.027344 0.4257813,-1.589844 0.4296875,-0.5625 1.2070312,-0.5625 0.4726563,0 0.7148438,0.207031 0.2460937,0.203125 0.3203125,0.621094 H 8.770942 l -0.2421875,1.324219 q 0,-0.601563 -0.203125,-0.878906 -0.1992188,-0.277344 -0.6054688,-0.277344 -0.3867187,0 -0.5976562,0.304687 -0.2109375,0.300782 -0.2109375,0.851563 0,0.570312 0.203125,0.859375 0.2070312,0.289062 0.6054687,0.289062 0.453125,0 0.6289063,-0.273437 0.1796875,-0.273438 0.1796875,-0.875 l 0.28125,1.316406 H 8.442817 q -0.0625,0.414063 -0.3242188,0.621094 -0.2617187,0.207031 -0.6953125,0.207031 z m 5.7148483,0 q -0.78125,0 -1.128907,-0.429687 -0.34375,-0.429688 -0.34375,-1.375 v -4.132813 h 1.054688 v 4.09375 q 0,0.257813 0.05469,0.421875 0.05469,0.164063 0.210938,0.242188 0.15625,0.07813 0.464844,0.07813 0.34375,0 0.867187,-0.148438 l 0.121094,1.085938 q -0.332031,0.08594 -0.640625,0.125 -0.308594,0.03906 -0.660156,0.03906 z M 10.493602,47.00237 v -0.972656 h 1.242188 v 0.972656 z m 6.394532,4.964844 q -0.472657,0 -0.839844,-0.03125 -0.363281,-0.02734 -0.640625,-0.08594 l 0.125,-1.011719 q 0.492187,0.0625 0.828125,0.09375 0.335937,0.03125 0.527344,0.03125 0.511718,0 0.738281,-0.07031 0.230469,-0.07422 0.230469,-0.234375 0,-0.09375 -0.05859,-0.148437 -0.05859,-0.05469 -0.1875,-0.09375 L 16.3022,50.025808 q -0.414062,-0.125 -0.625,-0.371094 -0.207031,-0.246094 -0.207031,-0.664062 0,-0.667969 0.5625,-0.992188 0.5625,-0.328125 1.707031,-0.328125 0.265625,0 0.550781,0.01953 0.289063,0.01953 0.609375,0.05859 l -0.113281,0.980469 q -0.355469,-0.03125 -0.621094,-0.04297 -0.265625,-0.01172 -0.449218,-0.01172 -0.589844,0 -0.859375,0.07031 -0.265625,0.06641 -0.265625,0.222656 0,0.09766 0.05469,0.152344 0.05859,0.05078 0.179688,0.08594 l 1.121093,0.320313 q 0.535157,0.152344 0.796875,0.425781 0.265625,0.269531 0.265625,0.710938 0,0.660156 -0.523437,0.984375 -0.523438,0.320312 -1.597656,0.320312 z m 5.625,0 q -0.78125,0 -1.128907,-0.429687 -0.34375,-0.429688 -0.34375,-1.375 v -4.132813 h 1.054688 v 4.09375 q 0,0.257813 0.05469,0.421875 0.05469,0.164063 0.210938,0.242188 0.15625,0.07813 0.464844,0.07813 0.34375,0 0.867187,-0.148438 l 0.121094,1.085938 q -0.332031,0.08594 -0.640625,0.125 -0.308594,0.03906 -0.660156,0.03906 z M 19.868602,47.00237 v -0.972656 h 1.242188 v 0.972656 z m 4.695313,2.589844 v -0.945312 h 4.039062 v 0.945312 z m 7.640625,2.296875 v -2.804687 q 0,-0.429688 -0.25,-0.429688 -0.28125,0 -0.28125,0.464844 l -0.28125,-0.855469 h 0.351562 q 0.03516,-0.277344 0.214844,-0.433594 0.183594,-0.160156 0.480469,-0.160156 0.417969,0 0.609375,0.230469 0.195312,0.230469 0.195312,0.746094 v 3.242187 z m -2.90625,0 v -4.140625 h 0.949219 l 0.09375,0.875 v 3.265625 z m 1.589844,0 v -2.882812 q 0,-0.351563 -0.25,-0.351563 -0.296875,0 -0.296875,0.464844 l -0.242188,-0.855469 h 0.296875 q 0.08594,-0.59375 0.628906,-0.59375 0.300782,0 0.472657,0.222656 0.175781,0.222657 0.175781,0.675782 v 3.320312 z m 5.070312,0.07813 q -0.894531,0 -1.386719,-0.5625 -0.492187,-0.5625 -0.492187,-1.585937 0,-1.027344 0.492187,-1.585938 0.492188,-0.5625 1.386719,-0.5625 0.894531,0 1.386719,0.5625 0.492187,0.558594 0.492187,1.585938 0,1.023437 -0.492187,1.585937 -0.492188,0.5625 -1.386719,0.5625 z m 0.0039,-1.003906 q 0.359375,0 0.554688,-0.296875 0.199219,-0.300781 0.199219,-0.847656 0,-0.550782 -0.199219,-0.847657 -0.195313,-0.296875 -0.558594,-0.296875 -0.359375,0 -0.558594,0.296875 -0.199218,0.296875 -0.199218,0.847657 0,0.546875 0.199218,0.847656 0.199219,0.296875 0.5625,0.296875 z m 4.273438,1.003906 q -0.769531,0 -1.199219,-0.554687 -0.425781,-0.554688 -0.425781,-1.589844 0,-1.027344 0.425781,-1.589844 0.429688,-0.5625 1.207031,-0.5625 0.453125,0 0.6875,0.207031 0.238282,0.203125 0.308594,0.621094 h 0.34375 l -0.242187,1.324219 q 0,-0.601563 -0.203125,-0.878906 -0.199219,-0.277344 -0.605469,-0.277344 -0.386719,0 -0.597656,0.304687 -0.210938,0.300782 -0.210938,0.851563 0,0.570312 0.203125,0.859375 0.207031,0.289062 0.605469,0.289062 0.453125,0 0.628906,-0.273437 0.179688,-0.273438 0.179688,-0.875 l 0.28125,1.316406 h -0.367188 q -0.0625,0.414063 -0.324219,0.621094 -0.261718,0.207031 -0.695312,0.207031 z m 1.257812,-0.03906 -0.152343,-0.820313 v -5.078125 h 1.058593 v 5.859375 z m 3.238282,0.03906 q -0.589844,0 -0.914063,-0.386719 -0.324219,-0.390625 -0.324219,-1.097656 v -2.734375 h 1.058594 v 2.472656 q 0,0.355469 0.160156,0.550782 0.164063,0.191406 0.449219,0.191406 0.371094,0 0.558594,-0.285156 0.191406,-0.289063 0.191406,-0.964844 l 0.210938,1.378906 H 45.80219 q -0.09766,0.421875 -0.378906,0.648438 -0.28125,0.226562 -0.691406,0.226562 z m 1.25,-0.03906 -0.07031,-0.992188 v -0.726569 h 1.058597 v 0.734375 l 0.570312,0.08594 v 0.859375 z m -0.07031,-1.210938 v -2.96875 h 1.058597 v 2.734375 z m 4.726563,1.25 q -0.78125,0 -1.128907,-0.429687 -0.34375,-0.429688 -0.34375,-1.375 v -4.13282 h 1.054691 v 4.09375 q 0,0.257813 0.05469,0.421875 0.05469,0.164063 0.210938,0.242188 0.15625,0.07813 0.464844,0.07813 0.34375,0 0.867187,-0.148438 l 0.121094,1.085938 q -0.332031,0.08594 -0.640625,0.125 -0.308594,0.03906 -0.660156,0.03906 z m -2.644532,-4.964844 v -0.972656 h 1.242188 v 0.972656 z m 7.082032,4.964844 q -1.074219,0 -1.660157,-0.554687 -0.585937,-0.558594 -0.585937,-1.601563 0,-1.015625 0.496094,-1.578125 0.5,-0.5625 1.40625,-0.5625 0.886718,0 1.371093,0.519531 0.484375,0.519532 0.484375,1.511719 0,0.28125 -0.02344,0.535156 h -3.039063 v -0.734375 h 2.023438 q 0,-0.417968 -0.214844,-0.640625 -0.210937,-0.222656 -0.59375,-0.222656 -0.414062,0 -0.644531,0.296875 -0.226563,0.292969 -0.226563,0.835938 0,0.585937 0.335938,0.890625 0.339844,0.304687 0.964844,0.304687 0.28125,0 0.554687,-0.02734 0.273438,-0.03125 0.558594,-0.08203 l 0.101562,1 q -0.398437,0.07031 -0.726562,0.08984 -0.328125,0.01953 -0.582031,0.01953 z m 4,0 q -0.472657,0 -0.839844,-0.03125 -0.363281,-0.02734 -0.640625,-0.08594 l 0.125,-1.011719 q 0.492187,0.0625 0.828125,0.09375 0.335937,0.03125 0.527344,0.03125 0.511718,0 0.738281,-0.07031 0.230469,-0.07422 0.230469,-0.234375 0,-0.09375 -0.05859,-0.148437 -0.05859,-0.05469 -0.1875,-0.09375 l -1.308594,-0.390625 q -0.414062,-0.125 -0.625,-0.371094 -0.207031,-0.246094 -0.207031,-0.664062 0,-0.667969 0.5625,-0.992188 0.5625,-0.328125 1.707031,-0.328125 0.265625,0 0.550781,0.01953 0.289063,0.01953 0.609375,0.05859 l -0.113281,0.980469 q -0.355469,-0.03125 -0.621094,-0.04297 -0.265625,-0.01172 -0.449218,-0.01172 -0.589844,0 -0.859375,0.07031 -0.265625,0.06641 -0.265625,0.222656 0,0.09766 0.05469,0.152344 0.05859,0.05078 0.179688,0.08594 l 1.121093,0.320313 q 0.535157,0.152344 0.796875,0.425781 0.265625,0.269531 0.265625,0.710938 0,0.660156 -0.523437,0.984375 -0.523438,0.320312 -1.597656,0.320312 z"
       id="text1"
       aria-label="glsl-modules" />
  </g>
</svg>
